<?xml version="1.0" standalone="no"?><!DOCTYPE svg PUBLIC "-//W3C//DTD SVG 1.1//EN" "http://www.w3.org/Graphics/SVG/1.1/DTD/svg11.dtd"><svg class="icon" width="200px" height="200.00px" viewBox="0 0 1024 1024" version="1.1" xmlns="http://www.w3.org/2000/svg"><path fill="#BFCBD9" d="M736 1024l-448 0C166.4 1024 64 921.6 64 800l0-576C64 102.4 166.4 0 288 0l448 0C857.6 0 960 102.4 960 224l0 576C960 921.6 857.6 1024 736 1024zM288 64C198.4 64 128 134.4 128 224l0 576C128 889.6 198.4 960 288 960l448 0c89.6 0 160-70.4 160-160l0-576C896 134.4 825.6 64 736 64L288 64zM736 288l-448 0C268.8 288 256 275.2 256 256s12.8-32 32-32l448 0C755.2 224 768 236.8 768 256S755.2 288 736 288zM736 480l-448 0C268.8 480 256 467.2 256 448s12.8-32 32-32l448 0C755.2 416 768 428.8 768 448S755.2 480 736 480zM736 672l-448 0C268.8 672 256 659.2 256 640s12.8-32 32-32l448 0c19.2 0 32 12.8 32 32S755.2 672 736 672z" /></svg>