<?xml version="1.0" standalone="no"?><!DOCTYPE svg PUBLIC "-//W3C//DTD SVG 1.1//EN" "http://www.w3.org/Graphics/SVG/1.1/DTD/svg11.dtd"><svg class="icon" width="200px" height="200.00px" viewBox="0 0 1024 1024" version="1.1" xmlns="http://www.w3.org/2000/svg"><path fill="#BFCBD9" d="M64 163.7c0 22.6 18.3 40.9 40.9 40.9 22.6 0 40.9-18.3 40.9-40.9 0-22.6-18.3-40.9-40.9-40.9-22.6 0-40.9 18.3-40.9 40.9zM64 512c0 22.6 18.3 40.9 40.9 40.9 22.6 0 40.9-18.3 40.9-40.9 0-22.6-18.3-40.9-40.9-40.9-22.6 0-40.9 18.3-40.9 40.9zM64 860.3c0 22.6 18.3 40.9 40.9 40.9 22.6 0 40.9-18.3 40.9-40.9 0-22.6-18.3-40.9-40.9-40.9-22.6 0.1-40.9 18.3-40.9 40.9zM935 189.2H289.9c-13.7 0-25-11.3-25-25v-1.1c0-13.7 11.3-25 25-25H935c13.8 0 25 11.3 25 25v1.1c0 13.8-11.2 25-25 25zM935 537.5H289.9c-13.7 0-25-11.2-25-25v-1.1c0-13.8 11.3-25 25-25H935c13.8 0 25 11.2 25 25v1.1c0 13.8-11.2 25-25 25zM935 885.9H289.9c-13.7 0-25-11.2-25-25v-1.1c0-13.8 11.3-25 25-25H935c13.8 0 25 11.3 25 25v1.1c0 13.7-11.2 25-25 25z" /></svg>